<svg width="140" height="76" viewBox="0 0 140 76" fill="none" xmlns="http://www.w3.org/2000/svg">
<path d="M10.0002 63.9914V12C32.1851 12 42.3532 21.7762 42.3532 37.7735C42.3532 62.6582 19.398 64.1395 10.0002 63.9914Z" fill="white"/>
<path d="M31.5689 38L10.0002 43.2201V52.8571L31.5689 38Z" fill="#009688"/>
<path d="M61.6228 32H54.1814V14.7266H61.6228C62.6931 14.7422 63.5837 14.8672 64.2947 15.1016C65.5056 15.5 66.4861 16.2305 67.2361 17.293C67.8376 18.1523 68.2478 19.082 68.4666 20.082C68.6853 21.082 68.7947 22.0352 68.7947 22.9414C68.7947 25.2383 68.3337 27.1836 67.4119 28.7773C66.1619 30.9258 64.2322 32 61.6228 32ZM64.3064 19.1328C63.7517 18.1953 62.6541 17.7266 61.0134 17.7266H57.6853V29H61.0134C62.7166 29 63.9041 28.1602 64.5759 26.4805C64.9431 25.5586 65.1267 24.4609 65.1267 23.1875C65.1267 21.4297 64.8533 20.0781 64.3064 19.1328ZM74.6892 19.2266V32H71.3025V19.2266H74.6892ZM74.6892 14.6211V17.7031H71.3025V14.6211H74.6892ZM88.5876 20.8438C89.6658 22.1953 90.2048 23.793 90.2048 25.6367C90.2048 27.5117 89.6658 29.1172 88.5876 30.4531C87.5095 31.7812 85.8728 32.4453 83.6775 32.4453C81.4822 32.4453 79.8455 31.7812 78.7673 30.4531C77.6892 29.1172 77.1501 27.5117 77.1501 25.6367C77.1501 23.793 77.6892 22.1953 78.7673 20.8438C79.8455 19.4922 81.4822 18.8164 83.6775 18.8164C85.8728 18.8164 87.5095 19.4922 88.5876 20.8438ZM83.6658 21.6406C82.6892 21.6406 81.9353 21.9883 81.4041 22.6836C80.8806 23.3711 80.6189 24.3555 80.6189 25.6367C80.6189 26.918 80.8806 27.9062 81.4041 28.6016C81.9353 29.2969 82.6892 29.6445 83.6658 29.6445C84.6423 29.6445 85.3923 29.2969 85.9158 28.6016C86.4392 27.9062 86.7009 26.918 86.7009 25.6367C86.7009 24.3555 86.4392 23.3711 85.9158 22.6836C85.3923 21.9883 84.6423 21.6406 83.6658 21.6406ZM99.0291 22.3086C97.6853 22.3086 96.783 22.7461 96.322 23.6211C96.0642 24.1133 95.9353 24.8711 95.9353 25.8945V32H92.572V19.2266H95.7595V21.4531C96.2751 20.6016 96.7244 20.0195 97.1072 19.707C97.7322 19.1836 98.5447 18.9219 99.5447 18.9219C99.6072 18.9219 99.658 18.9258 99.697 18.9336C99.7439 18.9336 99.8416 18.9375 99.99 18.9453V22.3672C99.7791 22.3438 99.5916 22.3281 99.4275 22.3203C99.2634 22.3125 99.1306 22.3086 99.0291 22.3086ZM65.5369 42.75V60H62.2908V58.2305C61.8142 58.9883 61.2712 59.5391 60.6619 59.8828C60.0525 60.2266 59.2947 60.3984 58.3884 60.3984C56.8962 60.3984 55.6384 59.7969 54.615 58.5938C53.5994 57.3828 53.0916 55.832 53.0916 53.9414C53.0916 51.7617 53.5916 50.0469 54.5916 48.7969C55.5994 47.5469 56.9431 46.9219 58.6228 46.9219C59.3962 46.9219 60.0837 47.0938 60.6853 47.4375C61.2869 47.7734 61.7751 48.2422 62.1501 48.8438V42.75H65.5369ZM56.5369 53.6953C56.5369 54.875 56.7712 55.8164 57.24 56.5195C57.7009 57.2305 58.4041 57.5859 59.3494 57.5859C60.2947 57.5859 61.0134 57.2344 61.5056 56.5312C61.9978 55.8281 62.2439 54.918 62.2439 53.8008C62.2439 52.2383 61.8494 51.1211 61.0603 50.4492C60.5759 50.043 60.0134 49.8398 59.3728 49.8398C58.3962 49.8398 57.6775 50.2109 57.2166 50.9531C56.7634 51.6875 56.5369 52.6016 56.5369 53.6953ZM79.5173 56.25C79.4314 57.0078 79.0369 57.7773 78.3337 58.5586C77.24 59.8008 75.7087 60.4219 73.74 60.4219C72.115 60.4219 70.6814 59.8984 69.4392 58.8516C68.197 57.8047 67.5759 56.1016 67.5759 53.7422C67.5759 51.5312 68.1345 49.8359 69.2517 48.6562C70.3767 47.4766 71.8337 46.8867 73.6228 46.8867C74.6853 46.8867 75.6423 47.0859 76.4939 47.4844C77.3455 47.8828 78.0486 48.5117 78.6033 49.3711C79.1033 50.1289 79.4275 51.0078 79.5759 52.0078C79.6619 52.5938 79.697 53.4375 79.6814 54.5391H70.9392C70.9861 55.8203 71.3884 56.7188 72.1462 57.2344C72.6072 57.5547 73.1619 57.7148 73.8103 57.7148C74.4978 57.7148 75.0564 57.5195 75.4861 57.1289C75.7205 56.918 75.9275 56.625 76.1072 56.25H79.5173ZM76.2126 52.3359C76.158 51.4531 75.8884 50.7852 75.4041 50.332C74.9275 49.8711 74.3337 49.6406 73.6228 49.6406C72.8494 49.6406 72.2478 49.8828 71.8181 50.3672C71.3962 50.8516 71.1306 51.5078 71.0212 52.3359H76.2126ZM90.7439 47.8125C91.7439 48.4531 92.3181 49.5547 92.4666 51.1172H89.1267C89.0798 50.6875 88.9587 50.3477 88.7634 50.0977C88.3962 49.6445 87.7712 49.418 86.8884 49.418C86.1619 49.418 85.6423 49.5312 85.3298 49.7578C85.0251 49.9844 84.8728 50.25 84.8728 50.5547C84.8728 50.9375 85.0369 51.2148 85.365 51.3867C85.6931 51.5664 86.8533 51.875 88.8455 52.3125C90.1736 52.625 91.1697 53.0977 91.8337 53.7305C92.49 54.3711 92.8181 55.1719 92.8181 56.1328C92.8181 57.3984 92.3455 58.4336 91.4001 59.2383C90.4626 60.0352 89.0095 60.4336 87.0408 60.4336C85.033 60.4336 83.5486 60.0117 82.5876 59.168C81.6345 58.3164 81.158 57.2344 81.158 55.9219H84.5447C84.615 56.5156 84.7673 56.9375 85.0017 57.1875C85.4158 57.6328 86.1814 57.8555 87.2986 57.8555C87.9548 57.8555 88.4744 57.7578 88.8572 57.5625C89.2478 57.3672 89.4431 57.0742 89.4431 56.6836C89.4431 56.3086 89.2869 56.0234 88.9744 55.8281C88.6619 55.6328 87.5017 55.2969 85.4939 54.8203C84.0486 54.4609 83.0291 54.0117 82.4353 53.4727C81.8416 52.9414 81.5447 52.1758 81.5447 51.1758C81.5447 49.9961 82.0056 48.9844 82.9275 48.1406C83.8572 47.2891 85.1619 46.8633 86.8416 46.8633C88.4353 46.8633 89.7361 47.1797 90.7439 47.8125ZM98.7361 47.2266V60H95.3494V47.2266H98.7361ZM98.7361 42.6211V45.7031H95.3494V42.6211H98.7361ZM105.592 62.2383C105.951 62.543 106.556 62.6953 107.408 62.6953C108.611 62.6953 109.416 62.293 109.822 61.4883C110.088 60.9727 110.22 60.1055 110.22 58.8867V58.0664C109.9 58.6133 109.556 59.0234 109.189 59.2969C108.525 59.8047 107.662 60.0586 106.599 60.0586C104.959 60.0586 103.646 59.4844 102.662 58.3359C101.685 57.1797 101.197 55.6172 101.197 53.6484C101.197 51.75 101.67 50.1562 102.615 48.8672C103.56 47.5703 104.9 46.9219 106.635 46.9219C107.275 46.9219 107.834 47.0195 108.31 47.2148C109.123 47.5508 109.779 48.168 110.279 49.0664V47.2266H113.525V59.3438C113.525 60.9922 113.248 62.2344 112.693 63.0703C111.74 64.5078 109.912 65.2266 107.209 65.2266C105.576 65.2266 104.244 64.9062 103.213 64.2656C102.181 63.625 101.611 62.668 101.502 61.3945H105.135C105.228 61.7852 105.381 62.0664 105.592 62.2383ZM105.029 55.6406C105.482 56.7188 106.295 57.2578 107.467 57.2578C108.248 57.2578 108.908 56.9648 109.447 56.3789C109.986 55.7852 110.256 54.8438 110.256 53.5547C110.256 52.3438 109.998 51.4219 109.482 50.7891C108.974 50.1562 108.291 49.8398 107.431 49.8398C106.26 49.8398 105.451 50.3906 105.006 51.4922C104.771 52.0781 104.654 52.8008 104.654 53.6602C104.654 54.4023 104.779 55.0625 105.029 55.6406ZM122.666 49.6992C121.533 49.6992 120.756 50.1797 120.334 51.1406C120.115 51.6484 120.006 52.2969 120.006 53.0859V60H116.677V47.25H119.9V49.1133C120.33 48.457 120.736 47.9844 121.119 47.6953C121.806 47.1797 122.677 46.9219 123.732 46.9219C125.052 46.9219 126.131 47.2695 126.967 47.9648C127.81 48.6523 128.232 49.7969 128.232 51.3984V60H124.81V52.2305C124.81 51.5586 124.72 51.043 124.541 50.6836C124.213 50.0273 123.588 49.6992 122.666 49.6992Z" fill="white"/>
</svg>
