<svg width="99" height="46" viewBox="0 0 99 46" fill="none" xmlns="http://www.w3.org/2000/svg">
<path d="M11.1745 2.22656L13.863 7.6733L19.8753 8.55208L15.5249 12.7894L16.5516 18.7756L11.1745 15.9478L5.79736 18.7756L6.82406 12.7894L2.47363 8.55208L8.48592 7.6733L11.1745 2.22656Z" fill="white"/>
<path d="M30.3163 2.22668L33.0049 7.67342L39.0172 8.55221L34.6668 12.7895L35.6935 18.7757L30.3163 15.9479L24.9392 18.7757L25.9659 12.7895L21.6155 8.55221L27.6278 7.67342L30.3163 2.22668Z" fill="white"/>
<path d="M49.4582 2.22668L52.1467 7.67342L58.159 8.55221L53.8086 12.7895L54.8353 18.7757L49.4582 15.9479L44.081 18.7757L45.1078 12.7895L40.7573 8.55221L46.7696 7.67342L49.4582 2.22668Z" fill="white"/>
<path d="M68.6 2.22668L71.2886 7.67342L77.3009 8.55221L72.9504 12.7895L73.9771 18.7757L68.6 15.9479L63.2229 18.7757L64.2496 12.7895L59.8992 8.55221L65.9115 7.67342L68.6 2.22668Z" fill="white"/>
<path d="M90.2354 7.76965C90.267 7.83379 90.3286 7.87845 90.3994 7.88879L95.9746 8.70325L91.9404 12.6339C91.8892 12.6839 91.8658 12.7558 91.8779 12.8263L92.8291 18.3771L87.8428 15.755C87.7955 15.7303 87.7412 15.7241 87.6904 15.7365L87.6406 15.755L82.6533 18.3771L83.6055 12.8263C83.6176 12.7557 83.5943 12.6839 83.543 12.6339L79.5078 8.70325L85.085 7.88879C85.1556 7.87841 85.2164 7.83369 85.248 7.76965L87.7412 2.7179L90.2354 7.76965Z" stroke="white" stroke-width="0.435043" stroke-linecap="round" stroke-linejoin="round"/>
<path d="M87.7419 15.9479L87.7419 2.22668L85.0533 7.67342L79.041 8.55221L83.3914 12.7895L82.3647 18.7757L87.7419 15.9479Z" fill="white"/>
<path d="M1.19628 35.5042C1.19628 34.6759 1.36682 33.8597 1.70789 33.0558C2.05709 32.2437 2.47531 31.4194 2.96256 30.583L3.99796 31.0215C3.85178 31.2326 3.68937 31.5087 3.51071 31.8498C3.34017 32.1909 3.1737 32.5726 3.01128 32.9949C2.84887 33.409 2.71487 33.8354 2.6093 34.2739C2.50373 34.7043 2.45095 35.1266 2.45095 35.5407C2.45095 36.1823 2.589 36.8644 2.86511 37.5872C3.14121 38.3099 3.50665 39.0448 3.96142 39.792L2.98692 40.2914C2.64585 39.7798 2.33726 39.26 2.06115 38.7322C1.79316 38.2043 1.58202 37.6684 1.42773 37.1243C1.27343 36.5721 1.19628 36.032 1.19628 35.5042ZM12.7924 38.5129L12.7924 39.7189L8.13918 39.7189L8.13918 38.5129L9.86891 38.5129L9.86891 34.2617C9.79583 34.3591 9.68214 34.4607 9.52784 34.5662C9.37355 34.6718 9.19895 34.7733 9.00405 34.8708C8.81727 34.9601 8.62643 35.0332 8.43153 35.09C8.23663 35.1469 8.05798 35.1753 7.89556 35.1753L7.89556 33.9206C8.05798 33.9206 8.24475 33.8719 8.4559 33.7744C8.66704 33.677 8.87412 33.5633 9.07714 33.4334C9.28828 33.2953 9.46693 33.1654 9.61311 33.0436C9.75928 32.9136 9.84455 32.8203 9.86891 32.7634L11.2454 32.7634L11.2454 38.5129L12.7924 38.5129ZM19.9391 36.1498C19.9391 36.8644 19.8011 37.5019 19.525 38.0622C19.257 38.6144 18.8875 39.0489 18.4165 39.3656C17.9536 39.6823 17.4217 39.8407 16.8208 39.8407C16.2279 39.8407 15.696 39.6823 15.225 39.3656C14.754 39.0489 14.3805 38.6144 14.1044 38.0622C13.8364 37.5019 13.7024 36.8644 13.7024 36.1498C13.7024 35.4352 13.8364 34.8017 14.1044 34.2495C14.3805 33.6892 14.754 33.2507 15.225 32.9339C15.696 32.6091 16.2279 32.4467 16.8208 32.4467C17.4217 32.4467 17.9536 32.6091 18.4165 32.9339C18.8875 33.2507 19.257 33.6892 19.525 34.2495C19.8011 34.8017 19.9391 35.4352 19.9391 36.1498ZM18.5749 36.1498C18.5749 35.6625 18.5018 35.2362 18.3556 34.8708C18.2094 34.4972 18.0023 34.2089 17.7343 34.0059C17.4664 33.7948 17.1618 33.6892 16.8208 33.6892C16.4716 33.6892 16.163 33.7948 15.895 34.0059C15.627 34.2089 15.4159 34.4972 15.2616 34.8708C15.1154 35.2362 15.0423 35.6625 15.0423 36.1498C15.0423 36.637 15.1154 37.0634 15.2616 37.4288C15.4159 37.7942 15.627 38.0825 15.895 38.2937C16.163 38.4967 16.4716 38.5982 16.8208 38.5982C17.1618 38.5982 17.4623 38.4967 17.7222 38.2937C17.9902 38.0825 18.1972 37.7942 18.3434 37.4288C18.4977 37.0634 18.5749 36.637 18.5749 36.1498ZM25.8014 39.7189L23.755 36.7832L22.7074 37.7821L22.7074 39.7189L21.3675 39.7189L21.3675 30.8266L22.7074 30.8266L22.7074 36.4299L25.6553 33.3603L27.0926 33.3603L24.6199 36.028L27.2266 39.7189L25.8014 39.7189ZM31.7441 34.8586L31.7441 35.9305L30.3919 35.9305L30.3919 37.4044L29.186 37.4044L29.186 35.9305L27.8339 35.9305L27.8339 34.8586L29.186 34.8586L29.186 33.3847L30.3919 33.3847L30.3919 34.8586L31.7441 34.8586ZM36.3244 39.7189L36.3244 31.0702L40.0884 31.0702C40.4782 31.0702 40.8355 31.1514 41.1603 31.3138C41.4851 31.4763 41.7653 31.6915 42.0008 31.9595C42.2444 32.2274 42.4312 32.5279 42.5611 32.8609C42.6992 33.1938 42.7682 33.5349 42.7682 33.8841C42.7682 34.2658 42.6992 34.6312 42.5611 34.9804C42.4231 35.3296 42.2241 35.6301 41.9643 35.8818C41.7125 36.1335 41.4161 36.3163 41.075 36.4299L43.1093 39.7189L41.5745 39.7189L39.6986 36.7101L37.6887 36.7101L37.6887 39.7189L36.3244 39.7189ZM37.6887 35.5042L40.0762 35.5042C40.3279 35.5042 40.5512 35.4311 40.7461 35.2849C40.941 35.1387 41.0953 34.9438 41.209 34.7002C41.3227 34.4485 41.3796 34.1764 41.3796 33.8841C41.3796 33.5836 41.3146 33.3156 41.1847 33.0801C41.0547 32.8365 40.8842 32.6416 40.6731 32.4954C40.47 32.3492 40.2467 32.2762 40.0031 32.2762L37.6887 32.2762L37.6887 35.5042ZM46.8919 39.8407C46.3966 39.8407 45.9459 39.7554 45.5398 39.5849C45.1419 39.4062 44.7968 39.1667 44.5044 38.8662C44.2121 38.5576 43.9847 38.2084 43.8223 37.8186C43.668 37.4207 43.5908 36.9984 43.5908 36.5518C43.5908 35.9508 43.7289 35.4027 44.005 34.9073C44.2811 34.4038 44.6668 34.0018 45.1622 33.7014C45.6576 33.3928 46.2382 33.2385 46.9041 33.2385C47.57 33.2385 48.1425 33.3928 48.6217 33.7014C49.1089 34.0018 49.4865 34.3998 49.7545 34.8951C50.0225 35.3905 50.1565 35.9224 50.1565 36.4909C50.1565 36.5883 50.1524 36.6817 50.1443 36.771C50.1362 36.8522 50.1281 36.9213 50.12 36.9781L45.016 36.9781C45.0404 37.3517 45.1419 37.6806 45.3206 37.9648C45.5073 38.2409 45.7428 38.4601 46.0271 38.6226C46.3113 38.7769 46.6158 38.854 46.9407 38.854C47.298 38.854 47.635 38.7647 47.9517 38.586C48.2765 38.4074 48.4958 38.1719 48.6095 37.8795L49.7545 38.2084C49.6165 38.517 49.4053 38.7972 49.1211 39.0489C48.845 39.2925 48.5161 39.4874 48.1344 39.6336C47.7527 39.7717 47.3386 39.8407 46.8919 39.8407ZM44.9795 36.0889L48.8288 36.0889C48.8044 35.7234 48.6988 35.4027 48.512 35.1266C48.3334 34.8423 48.1019 34.6231 47.8177 34.4688C47.5416 34.3064 47.233 34.2252 46.8919 34.2252C46.559 34.2252 46.2504 34.3064 45.9662 34.4688C45.6901 34.6231 45.4627 34.8423 45.284 35.1266C45.1054 35.4027 45.0039 35.7234 44.9795 36.0889ZM52.8495 39.7189L50.4254 33.3481L51.8141 33.3481L53.6291 38.4764L55.4441 33.3481L56.7353 33.3481L54.3112 39.7189L52.8495 39.7189ZM57.6969 39.7189L57.6969 33.3481L59.0369 33.3481L59.0369 39.7189L57.6969 39.7189ZM57.6969 32.3005L57.6969 30.8266L59.0369 30.8266L59.0369 32.3005L57.6969 32.3005ZM63.534 39.8407C63.0387 39.8407 62.5879 39.7554 62.1819 39.5849C61.784 39.4062 61.4389 39.1667 61.1465 38.8662C60.8542 38.5576 60.6268 38.2084 60.4644 37.8186C60.3101 37.4207 60.2329 36.9984 60.2329 36.5518C60.2329 35.9508 60.371 35.4027 60.6471 34.9073C60.9232 34.4038 61.3089 34.0018 61.8043 33.7014C62.2997 33.3928 62.8803 33.2385 63.5462 33.2385C64.2121 33.2385 64.7846 33.3928 65.2638 33.7014C65.751 34.0018 66.1286 34.3998 66.3966 34.8951C66.6646 35.3905 66.7986 35.9224 66.7986 36.4909C66.7986 36.5883 66.7945 36.6817 66.7864 36.771C66.7783 36.8522 66.7702 36.9213 66.762 36.9781L61.6581 36.9781C61.6825 37.3517 61.784 37.6806 61.9626 37.9648C62.1494 38.2409 62.3849 38.4601 62.6692 38.6226C62.9534 38.7769 63.2579 38.854 63.5827 38.854C63.9401 38.854 64.2771 38.7647 64.5938 38.586C64.9186 38.4074 65.1379 38.1719 65.2516 37.8795L66.3966 38.2084C66.2585 38.517 66.0474 38.7972 65.7632 39.0489C65.4871 39.2925 65.1582 39.4874 64.7765 39.6336C64.3948 39.7717 63.9807 39.8407 63.534 39.8407ZM61.6216 36.0889L65.4708 36.0889C65.4465 35.7234 65.3409 35.4027 65.1541 35.1266C64.9755 34.8423 64.744 34.6231 64.4598 34.4688C64.1837 34.3064 63.8751 34.2252 63.534 34.2252C63.2011 34.2252 62.8925 34.3064 62.6083 34.4688C62.3321 34.6231 62.1048 34.8423 61.9261 35.1266C61.7474 35.4027 61.6459 35.7234 61.6216 36.0889ZM75.6553 33.3481L76.9343 33.3481L74.2544 39.7189L73.1094 39.7189L71.9644 36.8441L70.8193 39.7189L69.6743 39.7189L66.9823 33.3481L68.2613 33.3481L70.3077 38.4155L71.2091 36.0645L70.1128 33.3603L71.2457 33.3603L71.9644 35.3458L72.6709 33.3603L73.8037 33.3603L72.7196 36.0645L73.621 38.4155L75.6553 33.3481ZM79.9355 39.8407C79.3995 39.8407 78.892 39.7554 78.4129 39.5849C77.9337 39.4062 77.5236 39.1423 77.1826 38.7931L77.682 37.8917C78.0474 38.2165 78.4129 38.452 78.7783 38.5982C79.1519 38.7444 79.5214 38.8175 79.8868 38.8175C80.2604 38.8175 80.5649 38.7484 80.8004 38.6104C81.0359 38.4642 81.1536 38.2531 81.1536 37.977C81.1536 37.7739 81.0927 37.6237 80.9709 37.5263C80.8491 37.4288 80.6705 37.3435 80.435 37.2705C80.2076 37.1974 79.9315 37.1162 79.6066 37.0268C79.1519 36.8888 78.7702 36.7467 78.4616 36.6005C78.153 36.4462 77.9216 36.2594 77.7673 36.0402C77.613 35.8209 77.5358 35.5407 77.5358 35.1996C77.5358 34.7855 77.6414 34.4322 77.8525 34.1399C78.0637 33.8475 78.356 33.6242 78.7296 33.4699C79.1113 33.3156 79.5498 33.2385 80.0452 33.2385C80.508 33.2385 80.9344 33.3116 81.3242 33.4577C81.7221 33.5958 82.0713 33.8151 82.3718 34.1155L81.7992 35.0047C81.515 34.7449 81.2227 34.554 80.9222 34.4322C80.6298 34.3104 80.3131 34.2495 79.9721 34.2495C79.7772 34.2495 79.5904 34.2739 79.4117 34.3226C79.2331 34.3632 79.0828 34.4444 78.961 34.5662C78.8473 34.6799 78.7905 34.8423 78.7905 35.0535C78.7905 35.224 78.8392 35.3621 78.9367 35.4676C79.0341 35.5732 79.1803 35.6625 79.3752 35.7356C79.5701 35.8087 79.8096 35.8899 80.0939 35.9792C80.5892 36.1254 81.0115 36.2716 81.3607 36.4178C81.7099 36.5558 81.9779 36.7385 82.1647 36.9659C82.3596 37.1852 82.457 37.4897 82.457 37.8795C82.457 38.4967 82.2256 38.9799 81.7627 39.3291C81.3079 39.6701 80.6989 39.8407 79.9355 39.8407ZM85.98 35.5042C85.98 36.032 85.9028 36.5721 85.7485 37.1243C85.5942 37.6684 85.3831 38.2043 85.1151 38.7322C84.8471 39.26 84.5426 39.7798 84.2015 40.2914L83.2148 39.792C83.6696 39.0448 84.035 38.3099 84.3111 37.5872C84.5954 36.8644 84.7375 36.1823 84.7375 35.5407C84.7375 35.1266 84.6847 34.7043 84.5791 34.2739C84.4736 33.8354 84.3355 33.409 84.165 32.9949C84.0025 32.5726 83.832 32.1909 83.6534 31.8498C83.4828 31.5087 83.3285 31.2326 83.1905 31.0215L84.2137 30.583C84.7091 31.4194 85.1273 32.2437 85.4684 33.0558C85.8094 33.8597 85.98 34.6759 85.98 35.5042Z" fill="white"/>
</svg>
