<svg width="187" height="75" viewBox="0 0 187 75" fill="none" xmlns="http://www.w3.org/2000/svg">
<path fill-rule="evenodd" clip-rule="evenodd" d="M98.8658 13.3552L88.3824 15.6712V6.9218L98.8658 4.64868V13.3552ZM120.667 18.2016C116.574 18.2016 113.943 20.1745 112.481 21.5469L111.938 18.8878H102.749V68.8966L113.191 66.6234L113.233 54.4858C114.736 55.6009 116.95 57.1878 120.625 57.1878C128.101 57.1878 134.909 51.0118 134.909 37.4159C134.867 24.9781 127.976 18.2016 120.667 18.2016ZM118.161 47.7519C115.697 47.7519 114.235 46.8512 113.233 45.7361L113.191 29.8243C114.277 28.5805 115.78 27.7227 118.161 27.7227C121.962 27.7227 124.593 32.0974 124.593 37.7158C124.593 43.463 122.004 47.7519 118.161 47.7519ZM167.821 37.8448C167.821 26.8652 162.642 18.2016 152.744 18.2016C142.803 18.2016 136.789 26.8652 136.789 37.759C136.789 50.6686 143.889 57.1878 154.08 57.1878C159.05 57.1878 162.809 56.0298 165.649 54.4V45.8222C162.809 47.2804 159.551 48.181 155.417 48.181C151.365 48.181 147.773 46.7228 147.314 41.6619H167.738C167.738 41.4255 167.753 40.8885 167.77 40.2698C167.793 39.4292 167.821 38.4377 167.821 37.8448ZM147.188 33.7701C147.188 28.9236 150.07 26.9078 152.701 26.9078C155.249 26.9078 157.964 28.9236 157.964 33.7701H147.188ZM88.382 18.9307H98.8653V56.4586H88.382V18.9307ZM76.4797 18.9308L77.1479 22.1046C79.6121 17.4725 84.4987 18.4161 85.8352 18.9308V28.7953C84.5405 28.3235 80.3639 27.723 77.8997 31.0255V56.4587H67.4583V18.9308H76.4797ZM56.2644 9.62375L46.0735 11.854L46.0317 46.2081C46.0317 52.5557 50.6677 57.2306 56.8491 57.2306C60.2739 57.2306 62.7798 56.5873 64.1581 55.8153V47.1088C62.8216 47.6664 56.2226 49.6393 56.2226 43.2917V28.0661H64.1581V18.9307H56.2226L56.2644 9.62375ZM31.5815 27.5085C29.3679 27.5085 28.0314 28.1519 28.0314 29.8245C28.0314 31.6508 30.3315 32.4542 33.1851 33.4509C37.8372 35.0757 43.9601 37.2142 43.9859 45.1359C43.9859 52.8131 38.0134 57.2307 29.3261 57.2307C25.7342 57.2307 21.8083 56.5016 17.924 54.786V44.5784C21.4324 46.5513 25.8595 48.0095 29.3261 48.0095C31.665 48.0095 33.3356 47.3662 33.3356 45.3933C33.3356 43.3703 30.8422 42.4457 27.832 41.3293C23.2476 39.6293 17.4646 37.4847 17.4646 30.3392C17.4646 22.7478 23.103 18.2016 31.5815 18.2016C35.048 18.2016 38.4728 18.7591 41.9394 20.1745V30.2534C38.7652 28.495 34.7557 27.5085 31.5815 27.5085Z" fill="#6461FC"/>
</svg>
