<svg width="29" height="18" viewBox="0 0 29 18" fill="none" xmlns="http://www.w3.org/2000/svg">
<path d="M0 0H29V18H0V0Z" fill="#012169"/>
<path d="M3.39844 0L14.4547 6.7875L25.4656 0H29V2.325L18.125 9.0375L29 15.7125V18H25.375L14.5 11.2875L3.67031 18H0V15.75L10.8297 9.075L0 2.4V0H3.39844Z" fill="white"/>
<path d="M19.2125 10.5375L29 16.5V18L16.7203 10.5375H19.2125ZM10.875 11.2875L11.1469 12.6L2.44688 18H0L10.875 11.2875ZM29 0V0.1125L17.7172 7.1625L17.8078 5.5125L26.7344 0H29ZM0 0L10.8297 6.6H8.11094L0 1.575V0Z" fill="#C8102E"/>
<path d="M10.9203 0V18H18.1703V0H10.9203ZM0 6V12H29V6H0Z" fill="white"/>
<path d="M0 7.2375V10.8375H29V7.2375H0ZM12.3703 0V18H16.7203V0H12.3703Z" fill="#C8102E"/>
</svg>
