<svg width="187" height="75" viewBox="0 0 187 75" fill="none" xmlns="http://www.w3.org/2000/svg">
<path fill-rule="evenodd" clip-rule="evenodd" d="M181.797 57.6015H180.231V19.5569H181.797V57.6015Z" fill="#231F20"/>
<path fill-rule="evenodd" clip-rule="evenodd" d="M162.855 57.4848H161.289V19.4402H162.855V57.4848Z" fill="#231F20"/>
<path fill-rule="evenodd" clip-rule="evenodd" d="M16.7481 36.4596L18.3248 25.4807L19.9236 36.4596H27.6088L31.3466 19.5144H25.3264L23.6725 30.2284L22.0296 19.5144H14.6973L13.0433 29.9422L11.4225 19.5144H5.14868L8.93062 36.4596H16.7481Z" fill="#231F20"/>
<path fill-rule="evenodd" clip-rule="evenodd" d="M34.3567 36.4596H49.6719V32.0511H41.9537V30.0482H49.2309V25.6927H41.9537V23.8699H49.4183V19.5144H34.3567V36.4596Z" fill="#231F20"/>
<path fill-rule="evenodd" clip-rule="evenodd" d="M52.9576 31.0125C52.9355 31.2245 52.9355 31.4364 52.9355 31.6272C52.9355 34.8594 55.9787 36.7457 61.7233 36.7457C67.4679 36.7457 70.467 34.8064 70.467 31.2245C70.467 28.1407 68.6587 27.2187 64.1601 25.7668C61.7564 24.9826 60.3561 25.025 60.3561 23.8487C60.3561 23.2129 60.7751 22.7466 61.7895 22.7466C62.9803 22.7466 63.5536 23.499 63.4985 24.6117H70.0039V23.9017C70.0039 20.9132 67.1922 19.1011 61.9879 19.1011C56.2764 19.1011 53.2443 21.2312 53.2443 24.5587C53.2443 26.9431 54.7769 28.3208 57.9414 29.1898C60.2569 29.8256 61.58 30.3555 62.5834 30.7794C63.1126 31.002 63.289 31.5106 63.2118 31.9875C63.1126 32.6445 62.6936 33.0472 61.6572 33.0472C60.3781 33.0472 60.0143 32.3054 60.0143 31.1503V31.0125H52.9686H52.9576Z" fill="#231F20"/>
<path fill-rule="evenodd" clip-rule="evenodd" d="M89.1341 19.5144H72.3745V24.0395H77.0385V36.4596H84.5032V24.0395H89.1341V19.5144Z" fill="#231F20"/>
<path fill-rule="evenodd" clip-rule="evenodd" d="M92.3428 36.4596H107.658V32.0511H99.9397V30.0482H107.151V25.6927H99.9397V23.8699H107.404V19.5144H92.3428V36.4596Z" fill="#231F20"/>
<path fill-rule="evenodd" clip-rule="evenodd" d="M112.322 36.4595H119.654V30.4296C119.897 30.4084 120.14 30.4084 120.327 30.4084C122.091 30.4084 122.345 31.0231 122.631 32.867L122.819 34.1175C122.929 34.8699 123.139 35.6541 123.392 36.4701H130.835C130.515 35.2196 130.261 34.2129 130.162 33.4499L129.92 31.6377C129.589 29.1897 128.619 28.2678 126.645 27.8862C128.652 27.4094 130.162 25.9575 130.162 23.9228C130.162 20.5317 127.935 19.5249 122.576 19.5249H112.311V36.4701L112.322 36.4595ZM119.654 26.2648V23.3082C119.985 23.287 120.25 23.287 120.492 23.287C122.146 23.287 122.874 23.6685 122.874 24.7282C122.874 25.788 121.948 26.286 120.195 26.286C120.029 26.286 119.842 26.286 119.654 26.2648Z" fill="#231F20"/>
<path fill-rule="evenodd" clip-rule="evenodd" d="M140.284 26.7948L144.221 36.4596H152.744V19.5144H146.988V28.1407L143.735 19.5144H134.518V36.4596H140.284V26.7948Z" fill="#231F20"/>
<path fill-rule="evenodd" clip-rule="evenodd" d="M81.9453 47.0039L85.8817 56.6688H94.4048V39.7341H88.6382V48.3604L85.3855 39.7341H76.1787V56.6688H81.9453V47.0039Z" fill="#231F20"/>
<path fill-rule="evenodd" clip-rule="evenodd" d="M140.46 47.0039L144.397 56.6688H152.92V39.7341H147.164V48.3604L143.912 39.7341H134.705V56.6688H140.46V47.0039Z" fill="#231F20"/>
<path fill-rule="evenodd" clip-rule="evenodd" d="M53.3658 39.7341V49.9394C53.3658 51.8893 53.4981 53.426 55.0638 54.8884C56.6846 56.3932 59.0332 56.9655 62.3851 56.9655C68.5487 56.9655 71.4375 54.7506 71.4375 49.9394V39.7341H64.1162V50.2044C64.1162 51.5926 63.4656 52.345 62.3851 52.345C61.2494 52.345 60.654 51.635 60.654 50.2044V39.7341H53.3547H53.3658Z" fill="#231F20"/>
<path fill-rule="evenodd" clip-rule="evenodd" d="M106.71 39.7341H99.2012V56.6688H106.71V39.7341Z" fill="#231F20"/>
<path fill-rule="evenodd" clip-rule="evenodd" d="M120.459 56.9336C127.141 56.9336 130.714 53.8286 130.714 48.0742C130.714 42.3198 127.108 39.1936 120.702 39.1936C114.296 39.1936 110.613 42.4152 110.613 48.0954C110.613 53.7756 114.219 56.923 120.459 56.923V56.9336ZM120.68 43.1358C122.411 43.1358 122.819 44.6089 122.819 47.8093C122.819 51.3912 122.378 53.0232 120.647 53.0232C118.916 53.0232 118.508 51.423 118.508 48.159C118.508 44.736 118.894 43.1358 120.68 43.1358Z" fill="#231F20"/>
</svg>
